<svg id="visual" viewBox="0 0 540 960" width="540" height="960" xmlns="http://www.w3.org/2000/svg" xmlns:xlink="http://www.w3.org/1999/xlink" version="1.1"><rect x="0" y="0" width="540" height="960" fill="#001220"></rect><defs><linearGradient id="grad1_0" x1="0%" y1="0%" x2="100%" y2="100%"><stop offset="30%" stop-color="#001220" stop-opacity="1"></stop><stop offset="70%" stop-color="#001220" stop-opacity="1"></stop></linearGradient></defs><defs><linearGradient id="grad2_0" x1="0%" y1="0%" x2="100%" y2="100%"><stop offset="30%" stop-color="#001220" stop-opacity="1"></stop><stop offset="70%" stop-color="#001220" stop-opacity="1"></stop></linearGradient></defs><g transform="translate(540, 0)"><path d="M0 270C-48.9 263.9 -97.8 257.8 -135 233.8C-172.2 209.8 -197.7 168 -218.2 126C-238.8 84 -254.4 42 -270 0L0 0Z" fill="#3ce30f"></path></g><g transform="translate(0, 960)"><path d="M0 -270C39.6 -250.2 79.2 -230.5 121.5 -210.4C163.8 -190.4 208.6 -170.1 233.8 -135C259 -99.9 264.5 -49.9 270 0L0 0Z" fill="#3ce30f"></path></g></svg>