<?xml version="1.0" encoding="UTF-8" ?>
<!DOCTYPE svg PUBLIC "-//W3C//DTD SVG 1.1//EN" "http://www.w3.org/Graphics/SVG/1.1/DTD/svg11.dtd">
<svg width="1659pt" height="640pt" viewBox="0 0 1659 640" version="1.1" xmlns="http://www.w3.org/2000/svg">
<g id="#8db996ff">
</g>
<g id="#686d587f">
</g>
<g id="#aac363ff">
</g>
<g id="#6a6975ff">
<path fill="#6a6975" opacity="1.00" d=" M 1065.05 250.25 C 1081.05 250.77 1097.04 250.12 1113.05 250.34 C 1097.05 250.32 1081.04 251.01 1065.05 250.25 Z" />
<path fill="#6a6975" opacity="1.00" d=" M 249.93 484.71 C 265.63 484.04 281.35 484.53 297.05 484.30 C 281.35 484.70 265.63 484.20 249.93 484.71 Z" />
</g>
<g id="#0a7844ff">
<path fill="#0a7844" opacity="1.00" d=" M 231.54 103.22 C 235.02 101.47 239.69 102.68 243.62 102.30 C 244.42 117.84 244.28 133.42 244.54 148.98 C 244.53 151.52 244.89 154.07 245.88 156.43 C 246.07 156.92 246.45 157.88 246.63 158.36 C 244.73 160.80 244.30 163.82 244.50 166.81 C 246.43 167.89 248.31 169.07 250.09 170.39 C 247.64 170.74 245.20 171.11 242.77 171.55 C 238.61 169.47 235.07 166.05 233.32 161.71 C 230.46 154.86 231.31 147.28 231.16 140.06 C 231.33 127.78 230.84 115.46 231.54 103.22 Z" />
</g>
<g id="#9ad025ff">
<path fill="#9ad025" opacity="1.00" d=" M 409.14 103.16 C 412.65 102.47 416.26 102.76 419.81 102.90 C 419.86 103.57 419.97 104.89 420.02 105.56 C 419.54 123.37 420.70 141.20 419.92 159.01 C 419.03 160.99 418.01 162.91 416.76 164.68 C 416.68 162.06 416.89 159.38 416.29 156.80 C 415.52 153.84 413.13 151.77 411.07 149.69 C 410.44 150.53 409.83 151.39 409.24 152.26 C 409.36 140.51 409.21 128.75 409.35 116.99 C 409.52 112.37 408.45 107.75 409.14 103.16 Z" />
</g>
<g id="#b4d853fe">
</g>
<g id="#8ed128ff">
<path fill="#8ed128" opacity="1.00" d=" M 409.24 152.26 C 409.83 151.39 410.44 150.53 411.07 149.69 C 413.13 151.77 415.52 153.84 416.29 156.80 C 416.89 159.38 416.68 162.06 416.76 164.68 C 413.09 169.07 408.01 172.34 402.29 173.18 C 398.55 172.91 394.81 172.66 391.06 172.72 C 392.13 172.03 393.20 171.35 394.28 170.65 C 394.34 168.31 395.19 166.13 396.55 164.24 C 392.32 163.58 388.05 163.21 383.83 162.48 C 390.26 161.11 397.38 163.65 403.35 160.37 C 405.20 159.41 407.06 158.26 408.18 156.43 C 408.56 155.05 408.89 153.65 409.24 152.26 Z" />
</g>
<g id="#9abeadff">
</g>
<g id="#1e9045ff">
<path fill="#1e9045" opacity="1.00" d=" M 246.63 158.36 C 246.99 158.81 247.70 159.72 248.05 160.17 C 248.40 160.59 249.08 161.43 249.42 161.85 C 255.09 162.69 261.01 161.28 266.49 163.32 C 270.23 164.74 274.85 164.07 277.87 167.07 C 279.47 168.64 281.81 168.73 283.88 169.18 C 282.38 170.86 280.93 172.59 279.53 174.36 C 272.69 174.50 265.84 174.44 259.00 174.48 C 253.49 174.45 247.64 174.49 242.77 171.55 C 245.20 171.11 247.64 170.74 250.09 170.39 C 248.31 169.07 246.43 167.89 244.50 166.81 C 244.30 163.82 244.73 160.80 246.63 158.36 Z" />
</g>
<g id="#a9c983ff">
</g>
<g id="#329542ff">
<path fill="#329542" opacity="1.00" d=" M 248.05 160.17 C 266.26 160.57 284.48 160.30 302.69 160.40 C 302.67 162.37 302.64 164.35 302.66 166.33 C 302.33 164.90 301.98 163.49 301.62 162.07 C 298.78 162.26 295.95 162.62 293.17 163.21 C 294.06 163.92 294.95 164.63 295.86 165.34 C 294.98 167.73 294.37 170.21 294.28 172.76 C 293.46 174.48 292.38 176.09 290.90 177.31 C 288.22 173.58 283.53 174.35 279.53 174.36 C 280.93 172.59 282.38 170.86 283.88 169.18 C 281.81 168.73 279.47 168.64 277.87 167.07 C 274.85 164.07 270.23 164.74 266.49 163.32 C 261.01 161.28 255.09 162.69 249.42 161.85 C 249.08 161.43 248.40 160.59 248.05 160.17 Z" />
</g>
<g id="#85c433ff">
<path fill="#85c433" opacity="1.00" d=" M 349.37 160.46 C 367.36 160.22 385.36 160.44 403.35 160.37 C 397.38 163.65 390.26 161.11 383.83 162.48 C 388.05 163.21 392.32 163.58 396.55 164.24 C 395.19 166.13 394.34 168.31 394.28 170.65 C 393.20 171.35 392.13 172.03 391.06 172.72 C 394.81 172.66 398.55 172.91 402.29 173.18 C 397.23 174.10 392.08 173.65 386.98 173.74 C 379.89 173.81 372.80 174.05 365.73 173.59 C 366.49 172.69 367.25 171.79 368.01 170.90 C 366.41 168.59 365.11 165.91 362.79 164.22 C 358.74 161.78 353.93 161.25 349.37 160.46 Z" />
</g>
<g id="#73b635ff">
<path fill="#73b635" opacity="1.00" d=" M 348.13 188.19 C 349.71 179.01 348.91 169.71 349.37 160.46 C 353.93 161.25 358.74 161.78 362.79 164.22 C 365.11 165.91 366.41 168.59 368.01 170.90 C 367.25 171.79 366.49 172.69 365.73 173.59 C 363.88 173.95 361.84 175.05 361.71 177.15 C 361.42 182.07 361.67 187.09 360.13 191.85 C 359.84 190.09 359.66 188.29 359.08 186.60 C 357.68 185.60 356.24 187.34 354.88 187.71 C 353.31 187.03 351.76 186.32 350.22 185.60 C 349.51 186.45 348.80 187.31 348.13 188.19 Z" />
</g>
<g id="#379333ff">
<path fill="#379333" opacity="1.00" d=" M 293.17 163.21 C 295.95 162.62 298.78 162.26 301.62 162.07 C 301.98 163.49 302.33 164.90 302.66 166.33 C 302.95 171.32 302.43 176.36 303.14 181.33 C 304.10 186.40 305.73 191.42 308.54 195.78 C 307.07 195.96 305.59 196.04 304.12 196.02 C 302.35 194.06 300.92 191.84 299.27 189.79 C 297.17 194.59 298.80 199.71 298.93 204.69 C 294.67 199.62 292.71 193.14 291.35 186.79 C 290.75 183.69 290.01 180.44 290.90 177.31 C 292.38 176.09 293.46 174.48 294.28 172.76 C 294.37 170.21 294.98 167.73 295.86 165.34 C 294.95 164.63 294.06 163.92 293.17 163.21 Z" />
</g>
<g id="#5bb130ff">
<path fill="#5bb130" opacity="1.00" d=" M 350.22 185.60 C 351.76 186.32 353.31 187.03 354.88 187.71 C 356.24 187.34 357.68 185.60 359.08 186.60 C 359.66 188.29 359.84 190.09 360.13 191.85 C 357.73 200.36 351.97 207.85 344.31 212.29 C 340.06 215.48 334.75 216.29 329.70 217.39 C 327.48 217.42 325.26 217.46 323.05 217.33 C 324.68 215.01 325.19 212.28 323.43 209.88 C 323.42 209.52 323.39 208.80 323.38 208.44 C 322.93 208.23 322.04 207.81 321.59 207.59 C 320.16 205.96 318.72 204.34 317.08 202.92 C 324.46 205.76 333.04 205.03 339.63 200.58 C 343.15 197.00 346.04 192.77 348.13 188.19 C 348.80 187.31 349.51 186.45 350.22 185.60 Z" />
</g>
<g id="#47a030ff">
<path fill="#47a030" opacity="1.00" d=" M 299.27 189.79 C 300.92 191.84 302.35 194.06 304.12 196.02 C 305.59 196.04 307.07 195.96 308.54 195.78 C 310.95 198.64 313.91 200.96 317.08 202.92 C 318.72 204.34 320.16 205.96 321.59 207.59 C 322.04 207.81 322.93 208.23 323.38 208.44 C 323.39 208.80 323.42 209.52 323.43 209.88 C 325.19 212.28 324.68 215.01 323.05 217.33 C 314.07 215.42 304.98 211.90 298.93 204.69 C 298.80 199.71 297.17 194.59 299.27 189.79 Z" />
</g>
<g id="#9fb695ff">
</g>
<g id="#a4a3aaff">
<path fill="#a4a3aa" opacity="1.00" d=" M 477.86 234.59 C 481.58 228.56 489.10 226.07 495.87 225.58 C 512.36 224.37 528.90 225.80 545.39 225.79 C 543.94 226.16 542.47 226.41 540.99 226.55 C 525.63 227.02 510.23 225.31 494.90 226.58 C 493.21 226.77 491.55 227.05 489.90 227.41 C 485.96 228.39 482.43 230.63 479.64 233.54 C 479.12 234.10 478.07 235.21 477.55 235.76 L 477.86 234.59 Z" />
</g>
<g id="#a1be93ff">
</g>
<g id="#59a33bff">
<path fill="#59a33b" opacity="1.00" d=" M 126.13 226.43 C 137.13 226.43 148.21 225.83 159.12 227.54 C 152.76 227.70 146.40 227.93 140.04 228.30 C 141.26 229.30 142.52 230.26 143.59 231.42 C 143.87 234.07 143.48 236.74 143.67 239.40 C 138.66 239.31 133.66 239.28 128.65 239.15 C 128.09 234.86 128.26 230.34 126.13 226.43 Z" />
</g>
<g id="#3e9745ff">
<path fill="#3e9745" opacity="1.00" d=" M 238.77 231.80 C 243.31 227.43 249.93 226.69 255.94 226.37 C 271.50 226.26 287.07 226.28 302.63 226.39 C 302.66 227.03 302.72 228.32 302.75 228.96 C 302.38 228.82 301.65 228.53 301.28 228.38 C 300.76 228.99 300.25 229.59 299.74 230.20 C 298.06 230.36 295.47 229.74 295.06 232.04 C 293.82 236.62 293.57 241.63 290.35 245.43 C 290.35 244.72 290.34 243.29 290.34 242.58 C 289.72 241.86 289.12 241.15 288.51 240.43 C 276.99 240.57 265.47 240.43 253.96 240.53 C 251.54 240.53 249.20 241.18 246.91 241.87 C 248.23 237.59 253.10 237.28 256.63 235.78 C 256.69 234.62 256.76 233.47 256.83 232.32 C 255.24 233.23 253.65 234.14 252.06 235.05 C 252.16 234.46 252.36 233.27 252.45 232.68 C 251.23 231.50 250.01 230.33 248.79 229.15 C 245.45 230.05 242.09 230.85 238.77 231.80 Z" />
<path fill="#3e9745" opacity="1.00" d=" M 1635.09 637.97 C 1635.26 638.48 1635.61 639.49 1635.79 640.00 L 1633.90 640.00 C 1634.20 639.49 1634.79 638.48 1635.09 637.97 Z" />
</g>
<g id="#6eb03eff">
<path fill="#6eb03e" opacity="1.00" d=" M 494.90 226.58 C 510.23 225.31 525.63 227.02 540.99 226.55 C 542.47 226.41 543.94 226.16 545.39 225.79 L 545.80 225.70 C 545.76 226.22 545.69 227.24 545.65 227.75 C 539.88 227.66 534.10 228.11 528.40 229.01 L 528.34 230.03 C 528.47 233.83 527.46 237.58 525.01 240.54 C 517.35 240.54 509.70 240.38 502.04 240.49 C 503.32 238.73 506.21 237.13 505.35 234.59 C 504.72 232.03 503.94 229.52 503.34 226.95 C 500.53 226.71 497.71 226.51 494.90 226.58 Z" />
</g>
<g id="#278e3cff">
<path fill="#278e3c" opacity="1.00" d=" M 106.53 227.30 C 107.37 226.59 108.39 226.32 109.60 226.49 C 111.02 227.12 112.43 227.80 113.84 228.48 C 113.97 230.93 114.35 233.41 113.94 235.85 C 112.81 237.69 110.66 238.55 108.90 239.65 C 108.44 239.48 107.53 239.14 107.07 238.97 C 106.12 235.17 106.61 231.18 106.53 227.30 Z" />
</g>
<g id="#389943ff">
<path fill="#389943" opacity="1.00" d=" M 109.60 226.49 C 115.11 226.29 120.62 226.51 126.13 226.43 C 128.26 230.34 128.09 234.86 128.65 239.15 C 122.06 239.05 115.49 239.75 108.90 239.65 C 110.66 238.55 112.81 237.69 113.94 235.85 C 114.35 233.41 113.97 230.93 113.84 228.48 C 112.43 227.80 111.02 227.12 109.60 226.49 Z" />
</g>
<g id="#77b73fff">
<path fill="#77b73f" opacity="1.00" d=" M 349.59 226.46 C 357.58 226.31 365.58 226.31 373.57 226.48 C 371.98 227.72 370.02 228.18 368.07 228.49 C 370.78 228.88 373.46 229.45 376.13 230.07 C 376.14 233.27 374.93 236.39 372.64 238.64 C 369.43 239.43 365.78 238.48 362.89 240.37 C 362.61 240.83 362.06 241.73 361.79 242.18 C 361.76 240.30 361.66 238.42 361.58 236.55 C 360.15 236.26 358.71 235.97 357.29 235.68 C 357.67 235.06 358.06 234.45 358.45 233.85 C 357.67 232.72 356.91 231.60 356.16 230.47 C 353.98 229.66 351.66 229.32 349.34 229.36 C 349.40 228.64 349.52 227.19 349.59 226.46 Z" />
</g>
<g id="#7ebe37ff">
<path fill="#7ebe37" opacity="1.00" d=" M 373.57 226.48 C 380.72 226.35 387.88 226.38 395.03 226.50 C 400.57 226.88 406.43 227.43 411.28 230.41 C 409.30 230.98 407.34 231.56 405.37 232.12 C 405.16 234.13 404.65 236.14 404.83 238.16 C 405.45 239.71 406.75 240.84 407.70 242.18 C 407.82 242.60 408.05 243.45 408.16 243.87 C 406.12 241.43 403.02 240.68 399.96 240.67 C 387.61 240.29 375.24 240.62 362.89 240.37 C 365.78 238.48 369.43 239.43 372.64 238.64 C 374.93 236.39 376.14 233.27 376.13 230.07 C 373.46 229.45 370.78 228.88 368.07 228.49 C 370.02 228.18 371.98 227.72 373.57 226.48 Z" />
</g>
<g id="#539f43ff">
<path fill="#539f43" opacity="1.00" d=" M 489.90 227.41 C 491.55 227.05 493.21 226.77 494.90 226.58 C 497.71 226.51 500.53 226.71 503.34 226.95 C 503.94 229.52 504.72 232.03 505.35 234.59 C 506.21 237.13 503.32 238.73 502.04 240.49 C 498.57 240.51 495.11 240.64 491.66 240.78 C 494.29 237.90 496.70 233.51 494.57 229.70 C 493.82 227.84 491.51 227.94 489.90 227.41 Z" />
</g>
<g id="#56a370ff">
<path fill="#56a370" opacity="1.00" d=" M 105.76 228.12 L 106.53 227.30 C 106.61 231.18 106.12 235.17 107.07 238.97 C 107.53 239.14 108.44 239.48 108.90 239.65 C 115.49 239.75 122.06 239.05 128.65 239.15 C 133.66 239.28 138.66 239.31 143.67 239.40 L 144.40 240.49 C 131.67 240.85 118.94 240.74 106.21 240.65 C 105.49 236.51 105.63 232.30 105.76 228.12 Z" />
</g>
<g id="#71b82fff">
<path fill="#71b82f" opacity="1.00" d=" M 140.04 228.30 C 146.40 227.93 152.76 227.70 159.12 227.54 C 162.27 227.84 165.34 228.82 168.06 230.46 C 167.60 231.44 167.14 232.43 166.68 233.42 C 165.35 233.73 163.65 233.51 162.74 234.72 C 162.09 236.74 162.17 238.89 162.03 240.98 C 156.18 240.24 150.27 240.36 144.40 240.49 L 143.67 239.40 C 143.48 236.74 143.87 234.07 143.59 231.42 C 142.52 230.26 141.26 229.30 140.04 228.30 Z" />
</g>
<g id="#439a31ff">
<path fill="#439a31" opacity="1.00" d=" M 301.28 228.38 C 301.65 228.53 302.38 228.82 302.75 228.96 C 303.29 236.98 301.85 245.20 304.16 253.03 C 305.82 259.23 309.69 264.66 314.78 268.53 C 314.31 272.35 316.89 275.64 317.72 279.24 C 317.30 279.61 316.48 280.36 316.06 280.73 C 319.73 281.79 323.36 282.97 327.10 283.75 C 316.95 283.72 306.94 279.41 299.70 272.34 C 292.97 265.23 289.95 255.10 290.35 245.43 C 293.57 241.63 293.82 236.62 295.06 232.04 C 295.47 229.74 298.06 230.36 299.74 230.20 C 300.25 229.59 300.76 228.99 301.28 228.38 Z" />
</g>
<g id="#2d8f44ff">
<path fill="#2d8f44" opacity="1.00" d=" M 479.64 233.54 C 482.43 230.63 485.96 228.39 489.90 227.41 C 491.51 227.94 493.82 227.84 494.57 229.70 C 496.70 233.51 494.29 237.90 491.66 240.78 C 489.20 243.31 487.57 246.55 487.56 250.13 C 487.27 261.56 487.47 273.00 487.57 284.43 C 487.93 284.72 488.65 285.31 489.01 285.60 C 488.21 288.37 488.74 291.17 489.68 293.82 C 488.77 295.42 487.84 297.01 486.91 298.60 C 483.43 298.85 479.94 298.80 476.46 298.75 C 476.13 298.41 475.49 297.72 475.17 297.37 C 477.73 297.09 480.28 296.70 482.79 296.07 C 482.44 295.69 481.76 294.93 481.41 294.55 C 482.05 294.18 482.69 293.81 483.33 293.44 C 484.19 288.26 486.27 283.29 486.01 277.95 C 487.29 266.76 484.88 255.36 487.34 244.30 C 487.57 241.19 486.06 238.26 485.44 235.26 C 485.16 235.64 484.61 236.40 484.34 236.78 C 484.11 235.59 483.88 234.40 483.66 233.22 C 482.32 233.33 480.97 233.43 479.64 233.54 Z" />
</g>
<g id="#7fc924ff">
<path fill="#7fc924" opacity="1.00" d=" M 528.40 229.01 C 534.10 228.11 539.88 227.66 545.65 227.75 C 545.52 232.01 545.60 236.26 545.48 240.52 C 543.95 240.57 542.42 240.62 540.90 240.62 C 540.06 238.21 539.26 235.80 538.49 233.37 C 537.52 233.12 536.56 232.87 535.61 232.63 C 535.51 231.90 535.42 231.16 535.34 230.43 C 533.00 230.29 530.67 230.16 528.34 230.03 L 528.40 229.01 Z" />
</g>
<g id="#1d8340ff">
<path fill="#1d8340" opacity="1.00" d=" M 238.77 231.80 C 242.09 230.85 245.45 230.05 248.79 229.15 C 250.01 230.33 251.23 231.50 252.45 232.68 C 252.36 233.27 252.16 234.46 252.06 235.05 C 253.65 234.14 255.24 233.23 256.83 232.32 C 256.76 233.47 256.69 234.62 256.63 235.78 C 253.10 237.28 248.23 237.59 246.91 241.87 C 245.53 245.08 244.32 248.45 244.34 252.00 C 244.13 267.55 244.22 283.09 243.53 298.63 C 236.34 298.81 229.12 298.26 221.96 299.06 C 224.07 297.80 225.51 295.79 226.55 293.61 C 227.05 293.98 227.55 294.35 228.05 294.73 C 229.12 288.93 222.23 286.71 217.70 286.36 C 221.84 285.76 226.05 285.72 230.20 285.16 C 231.19 281.54 231.12 277.74 231.18 274.02 C 231.10 264.53 231.16 255.05 231.28 245.57 C 232.40 240.38 234.34 235.09 238.77 231.80 Z" />
</g>
<g id="#6caf3bff">
<path fill="#6caf3b" opacity="1.00" d=" M 349.34 229.36 C 351.66 229.32 353.98 229.66 356.16 230.47 C 356.91 231.60 357.67 232.72 358.45 233.85 C 358.06 234.45 357.67 235.06 357.29 235.68 C 358.71 235.97 360.15 236.26 361.58 236.55 C 361.66 238.42 361.76 240.30 361.79 242.18 C 361.83 246.90 361.40 251.62 360.33 256.23 C 360.30 252.48 359.28 248.84 357.42 245.60 C 355.73 244.90 354.06 244.19 352.38 243.48 C 349.61 248.47 350.35 255.14 345.79 259.06 C 349.85 250.33 349.44 240.55 349.24 231.17 C 349.27 230.72 349.31 229.81 349.34 229.36 Z" />
</g>
<g id="#84c435ff">
<path fill="#84c435" opacity="1.00" d=" M 528.34 230.03 C 530.67 230.16 533.00 230.29 535.34 230.43 C 535.42 231.16 535.51 231.90 535.61 232.63 C 536.56 232.87 537.52 233.12 538.49 233.37 C 539.26 235.80 540.06 238.21 540.90 240.62 C 535.61 240.52 530.31 240.46 525.01 240.54 C 527.46 237.58 528.47 233.83 528.34 230.03 Z" />
</g>
<g id="#89c722ff">
<path fill="#89c722" opacity="1.00" d=" M 166.68 233.42 C 167.14 232.43 167.60 231.44 168.06 230.46 C 173.49 233.84 175.73 239.90 177.93 245.57 L 177.91 245.65 C 176.94 250.39 177.63 255.24 177.52 260.03 C 177.41 272.91 177.97 285.80 177.60 298.68 C 172.37 298.71 167.15 298.32 161.92 298.35 C 161.86 297.92 161.75 297.07 161.70 296.64 C 163.44 293.56 166.35 289.49 163.30 286.26 C 166.49 285.34 165.59 281.57 165.78 279.04 C 165.44 269.35 165.71 259.64 165.20 249.96 C 164.87 246.81 164.98 242.96 162.03 240.98 C 162.17 238.89 162.09 236.74 162.74 234.72 C 163.65 233.51 165.35 233.73 166.68 233.42 Z" />
</g>
<g id="#7fbf24ff">
<path fill="#7fbf24" opacity="1.00" d=" M 405.37 232.12 C 407.34 231.56 409.30 230.98 411.28 230.41 C 417.47 234.91 420.67 242.59 420.57 250.13 C 420.53 261.50 421.11 272.90 420.43 284.26 C 420.39 286.14 420.55 288.03 420.71 289.91 C 420.26 290.60 419.82 291.30 419.38 292.00 C 419.40 292.44 419.43 293.31 419.45 293.75 C 418.75 293.99 418.07 294.24 417.39 294.50 C 417.84 294.93 418.75 295.80 419.20 296.23 C 416.52 296.53 413.88 297.13 411.41 298.25 C 410.95 298.29 410.02 298.38 409.56 298.43 C 409.09 297.34 408.81 296.21 408.73 295.05 C 408.61 277.99 409.07 260.91 408.16 243.87 C 408.05 243.45 407.82 242.60 407.70 242.18 C 406.75 240.84 405.45 239.71 404.83 238.16 C 404.65 236.14 405.16 234.13 405.37 232.12 Z" />
</g>
<g id="#7d7c7db2">
</g>
<g id="#5a636dff">
<path fill="#5a636d" opacity="1.00" d=" M 1449.49 232.78 C 1468.62 230.18 1488.84 232.54 1505.93 241.94 C 1524.26 251.38 1538.30 268.00 1546.20 286.89 C 1559.11 316.64 1553.12 353.55 1531.77 377.90 C 1526.32 383.77 1520.77 389.69 1513.98 394.03 C 1499.07 403.99 1481.07 410.26 1462.99 408.87 C 1458.09 409.08 1455.93 403.05 1457.27 399.08 C 1458.34 395.88 1461.69 394.09 1464.94 394.08 C 1484.28 394.09 1503.47 385.82 1516.83 371.84 C 1530.84 357.60 1539.08 337.47 1537.90 317.42 C 1537.07 299.69 1529.85 282.26 1517.65 269.34 C 1510.93 262.04 1502.36 256.69 1493.45 252.47 C 1480.75 247.19 1466.57 246.22 1453.04 247.99 C 1438.10 249.79 1423.73 256.43 1413.21 267.27 C 1398.20 281.61 1388.80 302.40 1390.75 323.36 C 1392.52 323.26 1394.78 322.72 1394.66 320.46 C 1396.08 308.88 1397.64 296.94 1403.94 286.81 C 1413.67 268.09 1433.04 254.94 1453.90 252.29 C 1469.11 249.98 1485.18 252.79 1498.58 260.46 C 1515.04 269.95 1527.15 286.50 1531.16 305.09 C 1532.57 310.59 1533.16 316.32 1532.56 321.98 C 1532.23 327.30 1524.21 330.50 1520.75 326.10 C 1518.60 323.58 1518.30 320.12 1517.96 316.98 C 1517.07 306.83 1513.79 296.79 1507.89 288.44 C 1502.59 281.11 1495.16 275.56 1487.12 271.59 C 1477.47 267.05 1466.54 266.37 1456.06 267.22 C 1434.84 269.91 1416.52 286.88 1411.43 307.52 C 1409.56 314.66 1410.77 322.51 1407.15 329.19 C 1402.36 339.51 1385.96 340.43 1379.38 331.48 C 1375.36 326.63 1374.41 320.00 1375.19 313.91 C 1377.39 295.27 1384.36 276.86 1396.76 262.58 C 1410.02 246.80 1429.02 235.74 1449.49 232.78 M 1400.26 261.18 C 1387.64 273.62 1380.15 290.58 1377.41 307.93 C 1376.67 315.08 1375.15 323.21 1379.50 329.55 C 1382.17 332.67 1385.53 336.33 1390.07 335.80 C 1393.93 335.70 1398.49 336.60 1401.54 333.59 C 1406.64 329.73 1408.74 323.21 1408.87 317.03 C 1409.48 299.19 1419.91 282.18 1435.22 273.13 C 1444.27 268.00 1454.46 264.00 1465.04 264.57 C 1474.41 264.55 1483.45 267.81 1491.51 272.41 C 1506.34 280.28 1516.21 295.75 1518.80 312.16 C 1519.70 316.54 1519.08 321.47 1521.79 325.30 C 1524.39 327.90 1528.13 326.29 1530.21 323.87 L 1530.53 323.97 C 1532.23 314.85 1530.30 305.47 1527.20 296.87 C 1521.32 280.43 1508.56 266.88 1492.90 259.35 C 1480.13 253.63 1465.76 252.26 1451.97 254.01 C 1442.95 255.68 1433.77 258.64 1426.72 264.73 C 1424.28 266.65 1421.26 267.80 1419.22 270.19 C 1416.71 272.99 1414.11 275.68 1411.42 278.29 C 1404.31 286.73 1399.69 297.15 1397.71 307.99 C 1397.04 312.82 1396.94 317.77 1395.59 322.48 C 1394.93 324.99 1391.91 324.29 1390.00 324.35 C 1389.51 322.93 1388.87 321.53 1388.73 320.04 C 1389.11 309.73 1391.23 299.51 1395.08 289.93 C 1406.61 264.61 1432.78 245.70 1461.03 245.69 C 1474.05 245.41 1487.54 247.30 1499.03 253.78 C 1508.01 258.81 1516.60 264.98 1522.87 273.26 C 1539.47 294.37 1544.05 324.47 1533.45 349.28 C 1530.77 356.31 1526.12 362.35 1522.22 368.63 C 1516.69 374.41 1510.88 380.02 1504.01 384.21 C 1497.30 387.84 1490.49 391.50 1482.98 393.17 C 1475.96 396.04 1468.13 394.62 1461.02 396.94 C 1456.71 399.09 1457.44 405.57 1461.48 407.49 C 1470.05 408.36 1478.79 407.20 1487.06 404.87 C 1503.80 400.25 1519.17 390.59 1530.37 377.28 C 1532.78 374.30 1535.97 371.71 1537.01 367.86 C 1540.01 365.37 1541.32 361.49 1543.10 358.13 C 1552.60 338.65 1554.00 315.56 1547.80 294.88 C 1542.26 277.72 1532.09 261.15 1516.34 251.67 C 1509.00 245.37 1499.74 242.15 1491.26 237.79 C 1487.93 236.43 1484.25 236.28 1480.91 234.95 C 1475.51 232.94 1469.69 233.15 1464.03 233.03 C 1439.94 232.29 1416.41 243.60 1400.26 261.18 Z" />
</g>
<g id="#157d42ff">
<path fill="#157d42" opacity="1.00" d=" M 479.64 233.54 C 480.97 233.43 482.32 233.33 483.66 233.22 C 483.88 234.40 484.11 235.59 484.34 236.78 C 484.61 236.40 485.16 235.64 485.44 235.26 C 486.06 238.26 487.57 241.19 487.34 244.30 C 484.88 255.36 487.29 266.76 486.01 277.95 C 486.27 283.29 484.19 288.26 483.33 293.44 C 482.69 293.81 482.05 294.18 481.41 294.55 C 481.76 294.93 482.44 295.69 482.79 296.07 C 480.28 296.70 477.73 297.09 475.17 297.37 C 475.49 297.72 476.13 298.41 476.46 298.75 C 475.90 298.75 474.80 298.76 474.25 298.76 C 473.72 294.19 473.85 289.60 474.11 285.02 C 474.35 272.02 473.86 259.02 474.27 246.03 C 474.36 242.35 476.10 239.05 477.55 235.76 C 478.07 235.21 479.12 234.10 479.64 233.54 Z" />
</g>
<g id="#6d7384ff">
</g>
<g id="#263445ff">
<path fill="#263445" opacity="1.00" d=" M 644.13 233.20 C 659.06 232.17 674.09 232.34 689.04 232.58 C 691.83 234.92 692.40 238.87 693.89 242.05 C 706.50 274.35 720.15 306.22 732.80 338.50 C 733.16 338.46 733.89 338.40 734.25 338.36 C 738.62 325.75 743.96 313.50 748.84 301.08 C 757.63 279.72 766.10 258.23 774.77 236.82 C 775.74 235.04 776.40 232.15 779.01 232.55 C 787.66 232.31 796.33 232.57 804.99 232.48 C 810.83 232.67 816.83 231.90 822.50 233.72 C 822.91 239.13 823.23 244.54 823.17 249.97 C 823.11 298.63 823.14 347.29 823.09 395.95 C 822.99 400.07 823.44 404.47 821.43 408.25 C 809.96 407.88 798.49 407.77 787.01 407.83 C 785.57 407.60 782.91 408.21 783.36 405.91 C 782.70 386.27 782.63 366.61 782.76 346.97 C 783.05 342.31 783.00 337.66 782.73 333.01 C 782.38 327.32 784.01 321.66 783.00 316.00 C 776.90 325.71 773.48 336.74 769.36 347.35 C 763.75 361.65 758.11 375.93 752.52 390.23 C 750.87 394.28 749.37 398.43 747.13 402.20 C 742.77 399.92 737.77 400.80 733.06 400.62 C 728.26 400.48 723.43 400.59 718.70 401.50 C 707.67 375.20 697.25 348.64 686.85 322.08 C 685.80 319.55 684.30 317.25 682.75 315.00 C 683.05 323.66 683.78 332.33 683.13 341.00 C 682.92 349.34 683.55 357.68 683.09 366.03 C 682.27 379.93 683.45 393.90 682.36 407.80 C 669.82 408.80 657.24 407.03 644.70 408.04 C 644.28 404.37 644.17 400.68 644.24 396.99 C 644.31 342.40 644.27 287.79 644.13 233.20 Z" />
</g>
<g id="#263546ff">
<path fill="#263546" opacity="1.00" d=" M 918.86 233.78 C 920.42 233.00 922.26 233.39 923.96 233.36 C 935.62 234.09 947.32 233.61 958.99 233.60 C 961.63 233.08 962.35 235.98 963.15 237.84 C 974.45 268.35 986.36 298.63 997.89 329.07 C 1001.95 339.19 1005.42 349.56 1009.92 359.51 C 1014.70 372.00 1019.47 384.49 1024.21 397.00 C 1025.35 400.35 1026.86 403.76 1026.58 407.39 C 1011.94 409.14 997.08 407.92 982.39 407.61 C 977.43 398.86 975.43 388.68 970.12 380.09 C 968.98 378.33 967.22 377.02 965.03 377.26 C 950.68 376.91 936.29 377.89 921.99 376.33 C 917.19 376.55 910.43 374.73 907.55 379.80 C 905.02 384.45 902.98 389.33 901.06 394.25 C 898.81 398.68 898.00 404.00 894.81 407.85 C 887.91 408.71 880.95 407.78 874.03 407.78 C 866.75 407.77 859.48 407.82 852.21 407.61 C 853.77 397.12 858.78 387.57 862.24 377.64 C 866.32 368.93 869.32 359.78 873.00 350.90 C 887.08 314.97 901.10 279.02 915.03 243.03 C 916.23 239.92 917.11 236.65 918.86 233.78 M 938.38 287.24 C 932.96 299.99 929.26 313.37 924.65 326.42 C 922.89 332.41 919.90 338.00 918.80 344.19 C 918.14 347.82 922.51 347.77 924.97 348.20 C 932.63 348.43 940.32 348.41 947.93 347.44 C 951.38 346.92 956.58 348.85 958.21 344.62 C 958.93 343.78 958.57 342.44 958.39 341.45 C 952.63 324.28 946.17 307.32 941.04 289.94 C 940.57 288.72 940.07 286.83 938.38 287.24 Z" />
</g>
<g id="#2a3c55ff">
<path fill="#2a3c55" opacity="1.00" d=" M 1226.43 260.40 C 1241.74 243.91 1263.50 233.30 1286.09 232.53 C 1306.58 231.38 1327.34 237.87 1343.64 250.31 C 1347.80 253.53 1352.28 256.93 1354.50 261.86 C 1356.07 265.30 1352.13 267.94 1349.84 269.82 C 1345.16 269.44 1341.95 265.36 1338.33 262.81 C 1321.01 248.41 1296.98 242.24 1274.93 247.15 C 1269.44 248.24 1264.28 250.45 1259.06 252.39 C 1260.20 250.71 1261.20 248.93 1262.18 247.15 C 1258.41 248.06 1255.22 250.28 1251.75 251.86 C 1249.10 253.11 1246.04 252.27 1243.35 253.27 C 1240.80 254.66 1238.63 256.62 1236.32 258.34 C 1235.60 257.66 1234.89 256.99 1234.19 256.32 C 1230.88 259.64 1227.61 262.99 1224.41 266.41 C 1222.38 268.49 1220.83 271.31 1217.86 272.18 C 1219.55 267.54 1223.29 264.08 1226.43 260.40 Z" />
<path fill="#2a3c55" opacity="1.00" d=" M 1400.26 261.18 C 1416.41 243.60 1439.94 232.29 1464.03 233.03 C 1469.69 233.15 1475.51 232.94 1480.91 234.95 C 1484.25 236.28 1487.93 236.43 1491.26 237.79 C 1499.74 242.15 1509.00 245.37 1516.34 251.67 C 1532.09 261.15 1542.26 277.72 1547.80 294.88 C 1554.00 315.56 1552.60 338.65 1543.10 358.13 C 1541.32 361.49 1540.01 365.37 1537.01 367.86 C 1535.25 369.03 1533.83 370.60 1532.73 372.39 C 1530.57 371.37 1528.24 370.84 1525.88 370.94 C 1526.91 372.02 1527.97 373.09 1529.06 374.17 C 1528.65 375.26 1528.27 376.36 1527.90 377.46 C 1527.06 377.42 1526.25 377.38 1525.45 377.34 C 1525.20 377.92 1524.71 379.09 1524.46 379.67 C 1524.02 379.73 1523.15 379.85 1522.71 379.91 C 1522.60 379.54 1522.38 378.78 1522.27 378.40 C 1521.17 377.74 1520.11 377.09 1519.03 376.45 C 1521.55 376.61 1524.07 376.26 1526.43 375.33 C 1525.09 374.43 1523.68 373.68 1522.50 372.63 C 1522.20 371.31 1522.19 369.96 1522.22 368.63 C 1526.12 362.35 1530.77 356.31 1533.45 349.28 C 1544.05 324.47 1539.47 294.37 1522.87 273.26 C 1516.60 264.98 1508.01 258.81 1499.03 253.78 C 1487.54 247.30 1474.05 245.41 1461.03 245.69 C 1432.78 245.70 1406.61 264.61 1395.08 289.93 C 1391.23 299.51 1389.11 309.73 1388.73 320.04 C 1388.87 321.53 1389.51 322.93 1390.00 324.35 C 1391.91 324.29 1394.93 324.99 1395.59 322.48 C 1396.94 317.77 1397.04 312.82 1397.71 307.99 C 1399.69 297.15 1404.31 286.73 1411.42 278.29 C 1414.11 275.68 1416.71 272.99 1419.22 270.19 C 1421.26 267.80 1424.28 266.65 1426.72 264.73 C 1433.77 258.64 1442.95 255.68 1451.97 254.01 C 1465.76 252.26 1480.13 253.63 1492.90 259.35 C 1508.56 266.88 1521.32 280.43 1527.20 296.87 C 1530.30 305.47 1532.23 314.85 1530.53 323.97 L 1530.21 323.87 C 1529.10 323.49 1528.00 323.12 1526.92 322.75 C 1525.19 323.59 1523.48 324.43 1521.79 325.30 C 1519.08 321.47 1519.70 316.54 1518.80 312.16 C 1516.21 295.75 1506.34 280.28 1491.51 272.41 C 1483.45 267.81 1474.41 264.55 1465.04 264.57 C 1454.46 264.00 1444.27 268.00 1435.22 273.13 C 1419.91 282.18 1409.48 299.19 1408.87 317.03 C 1408.74 323.21 1406.64 329.73 1401.54 333.59 C 1398.49 336.60 1393.93 335.70 1390.07 335.80 C 1385.53 336.33 1382.17 332.67 1379.50 329.55 C 1375.15 323.21 1376.67 315.08 1377.41 307.93 C 1380.15 290.58 1387.64 273.62 1400.26 261.18 Z" />
</g>
<g id="#293a54ff">
<path fill="#293a54" opacity="1.00" d=" M 1048.13 237.19 C 1049.84 235.27 1052.63 235.29 1055.00 235.22 C 1071.66 235.41 1088.33 235.24 1104.99 235.28 C 1116.46 235.52 1128.00 234.76 1139.42 236.15 C 1151.55 237.19 1163.61 242.63 1171.51 252.06 C 1168.93 252.01 1166.46 251.30 1164.22 250.05 C 1165.69 252.06 1166.75 254.31 1167.61 256.65 C 1169.67 258.32 1171.42 260.36 1172.15 262.97 C 1169.37 260.91 1166.75 258.65 1164.08 256.45 C 1162.62 256.96 1161.17 257.47 1159.73 257.98 C 1154.49 253.50 1148.12 250.66 1141.41 249.23 C 1139.66 248.50 1137.99 247.38 1136.05 247.37 C 1118.81 246.91 1101.56 246.90 1084.31 246.59 C 1076.38 246.74 1068.27 244.73 1060.50 247.21 C 1060.34 247.65 1060.00 248.53 1059.84 248.96 L 1059.60 249.61 C 1058.46 262.30 1059.83 275.10 1058.74 287.78 C 1057.64 290.52 1054.55 293.60 1051.33 292.66 C 1048.49 291.17 1045.57 288.56 1045.78 285.06 C 1045.51 272.39 1045.81 259.70 1045.77 247.02 C 1045.89 243.68 1045.78 239.88 1048.13 237.19 Z" />
</g>
<g id="#58585878">
</g>
<g id="#9ac1b2ff">
</g>
<g id="#88b284ff">
</g>
<g id="#5daf34ff">
<path fill="#5daf34" opacity="1.00" d=" M 352.38 243.48 C 354.06 244.19 355.73 244.90 357.42 245.60 C 359.28 248.84 360.30 252.48 360.33 256.23 C 357.88 265.45 351.67 273.69 343.59 278.75 C 339.88 281.20 335.12 281.18 331.46 283.73 C 330.00 283.71 328.55 283.77 327.10 283.75 C 323.36 282.97 319.73 281.79 316.06 280.73 C 316.48 280.36 317.30 279.61 317.72 279.24 C 316.89 275.64 314.31 272.35 314.78 268.53 C 318.00 269.79 321.31 271.22 324.82 271.33 C 330.01 270.95 335.36 269.62 339.54 266.37 C 342.04 264.32 343.73 261.51 345.79 259.06 C 350.35 255.14 349.61 248.47 352.38 243.48 Z" />
</g>
<g id="#afceacff">
</g>
<g id="#43546aff">
<path fill="#43546a" opacity="1.00" d=" M 1060.50 247.21 C 1068.27 244.73 1076.38 246.74 1084.31 246.59 C 1101.56 246.90 1118.81 246.91 1136.05 247.37 C 1137.99 247.38 1139.66 248.50 1141.41 249.23 C 1130.62 248.43 1119.81 249.01 1109.01 248.87 C 1092.62 248.86 1076.22 248.72 1059.84 248.96 C 1060.00 248.53 1060.34 247.65 1060.50 247.21 Z" />
</g>
<g id="#243650ff">
<path fill="#243650" opacity="1.00" d=" M 1251.75 251.86 C 1255.22 250.28 1258.41 248.06 1262.18 247.15 C 1261.20 248.93 1260.20 250.71 1259.06 252.39 C 1252.99 255.70 1246.80 258.99 1241.60 263.62 C 1230.71 273.40 1222.32 286.03 1217.95 300.01 C 1217.18 305.67 1215.57 311.24 1215.57 316.99 C 1215.17 330.61 1218.03 344.39 1224.87 356.25 C 1229.62 365.05 1236.62 372.33 1244.08 378.88 C 1246.40 380.93 1249.32 382.38 1251.09 385.00 C 1252.07 386.28 1252.86 387.84 1254.35 388.66 C 1260.68 391.95 1267.50 394.10 1274.07 396.83 C 1279.61 398.17 1285.45 396.67 1290.98 398.18 C 1295.23 399.30 1299.65 399.26 1304.02 399.31 C 1303.24 400.08 1302.47 400.85 1301.69 401.61 C 1300.44 402.21 1299.21 402.83 1297.99 403.45 C 1296.76 402.75 1295.56 402.04 1294.36 401.35 C 1293.26 402.39 1292.17 403.43 1291.08 404.48 C 1287.42 403.43 1283.65 402.85 1279.93 402.11 C 1275.07 401.09 1270.03 401.91 1265.20 400.71 C 1258.72 399.14 1252.53 396.49 1246.76 393.18 C 1244.36 391.76 1241.68 390.93 1238.92 390.71 C 1235.32 389.57 1232.79 386.36 1229.96 383.99 C 1213.28 367.92 1203.31 345.15 1202.80 322.00 C 1202.67 304.55 1207.45 286.90 1217.31 272.43 L 1217.86 272.18 C 1220.83 271.31 1222.38 268.49 1224.41 266.41 C 1227.61 262.99 1230.88 259.64 1234.19 256.32 C 1234.89 256.99 1235.60 257.66 1236.32 258.34 C 1238.63 256.62 1240.80 254.66 1243.35 253.27 C 1246.04 252.27 1249.10 253.11 1251.75 251.86 Z" />
</g>
<g id="#9ea2aaff">
<path fill="#9ea2aa" opacity="1.00" d=" M 861.53 376.97 L 862.24 377.64 C 858.78 387.57 853.77 397.12 852.21 407.61 C 859.48 407.82 866.75 407.77 874.03 407.78 C 880.95 407.78 887.91 408.71 894.81 407.85 C 898.00 404.00 898.81 398.68 901.06 394.25 L 901.26 395.30 C 899.60 399.77 898.12 404.44 895.61 408.54 C 891.21 409.59 886.49 408.75 881.97 409.03 C 871.86 408.68 861.69 409.53 851.64 408.15 C 851.27 405.31 852.40 402.60 853.12 399.91 C 855.56 392.13 858.98 384.71 861.53 376.97 Z" />
</g>
<g id="#24354dff">
<path fill="#24354d" opacity="1.00" d=" M 1164.22 250.05 C 1166.46 251.30 1168.93 252.01 1171.51 252.06 C 1182.84 264.36 1187.49 282.27 1183.51 298.53 C 1181.65 298.48 1179.74 299.26 1179.34 301.26 C 1177.02 308.57 1172.11 314.62 1167.49 320.59 C 1163.92 322.95 1159.76 324.41 1156.36 327.09 C 1155.86 325.83 1155.37 324.58 1154.90 323.33 C 1159.37 319.05 1163.97 314.80 1167.62 309.76 C 1169.36 307.43 1169.54 304.46 1168.83 301.73 C 1174.91 287.13 1171.88 268.60 1159.73 257.98 C 1161.17 257.47 1162.62 256.96 1164.08 256.45 C 1166.75 258.65 1169.37 260.91 1172.15 262.97 C 1171.42 260.36 1169.67 258.32 1167.61 256.65 C 1166.75 254.31 1165.69 252.06 1164.22 250.05 Z" />
</g>
<g id="#2b3e58ff">
<path fill="#2b3e58" opacity="1.00" d=" M 1132.14 255.25 C 1147.15 253.39 1162.48 264.90 1164.89 279.86 C 1166.78 289.30 1164.41 299.73 1157.83 306.90 C 1152.80 312.04 1146.19 315.89 1138.94 316.58 C 1132.40 318.02 1125.69 317.71 1119.04 317.75 C 1110.34 317.64 1101.64 317.54 1092.95 317.63 C 1083.82 317.76 1075.55 322.91 1069.42 329.35 C 1067.35 327.03 1066.25 323.30 1063.25 322.11 C 1060.58 324.13 1057.80 326.08 1054.47 326.78 C 1062.87 314.22 1077.25 305.57 1092.39 304.56 C 1104.60 303.98 1116.83 304.46 1129.06 304.44 C 1134.75 304.63 1141.06 304.61 1145.63 300.64 C 1154.39 294.35 1155.16 280.09 1147.02 272.97 C 1143.32 268.85 1137.49 268.83 1132.51 267.63 C 1127.23 265.81 1127.32 257.50 1132.14 255.25 Z" />
</g>
<g id="#263851ff">
<path fill="#263851" opacity="1.00" d=" M 1243.16 271.81 C 1245.69 271.30 1248.81 269.57 1251.10 271.60 C 1253.31 273.49 1253.00 276.87 1252.67 279.48 C 1250.88 283.70 1247.05 286.60 1244.73 290.51 C 1234.16 306.05 1232.89 327.13 1241.21 343.95 C 1245.90 353.88 1253.67 362.20 1262.98 367.96 C 1265.32 369.58 1267.99 370.75 1270.17 372.62 C 1272.57 376.05 1276.93 376.45 1280.65 377.48 C 1279.82 378.03 1278.99 378.58 1278.20 379.14 C 1279.21 379.93 1280.24 380.73 1281.27 381.54 C 1278.67 381.88 1275.86 382.99 1273.41 381.55 C 1271.13 380.38 1268.59 379.93 1266.06 380.16 C 1261.96 380.69 1258.60 377.80 1254.77 376.94 C 1248.33 374.43 1243.75 368.83 1238.99 364.04 C 1228.92 352.18 1222.71 336.68 1223.14 321.00 C 1222.68 310.35 1225.00 299.61 1230.03 290.19 C 1233.35 283.42 1237.60 276.96 1243.16 271.81 Z" />
</g>
<g id="#8dcd20ff">
<path fill="#8dcd20" opacity="1.00" d=" M 420.71 289.91 C 420.55 288.03 420.39 286.14 420.43 284.26 C 423.31 286.04 426.79 285.58 430.02 285.97 C 436.38 286.48 442.74 288.26 448.10 291.80 C 455.40 296.34 460.33 303.96 462.94 312.02 C 464.90 319.98 465.72 328.93 461.83 336.46 C 457.41 346.10 448.90 354.18 438.30 356.34 C 434.64 355.76 430.93 355.34 427.33 354.44 C 426.81 352.36 430.72 353.34 432.02 352.62 C 430.72 352.25 429.43 351.86 428.15 351.49 C 428.27 349.85 428.40 348.22 428.53 346.58 C 430.83 345.91 433.11 345.16 435.30 344.19 C 441.23 341.73 447.01 337.95 449.83 331.96 C 453.24 325.86 453.04 318.22 449.91 312.06 C 446.31 304.38 438.23 299.61 430.04 298.42 C 423.87 297.33 417.63 298.61 411.41 298.25 C 413.88 297.13 416.52 296.53 419.20 296.23 C 418.75 295.80 417.84 294.93 417.39 294.50 C 418.07 294.24 418.75 293.99 419.45 293.75 C 419.43 293.31 419.40 292.44 419.38 292.00 C 419.82 291.30 420.26 290.60 420.71 289.91 Z" />
</g>
<g id="#3b9741ff">
<path fill="#3b9741" opacity="1.00" d=" M 489.01 285.60 C 491.46 285.59 493.91 285.51 496.36 285.55 C 496.77 288.07 498.70 289.88 499.83 292.07 C 500.90 294.75 498.46 296.83 497.09 298.80 C 493.73 298.03 490.29 298.02 486.91 298.60 C 487.84 297.01 488.77 295.42 489.68 293.82 C 488.74 291.17 488.21 288.37 489.01 285.60 Z" />
</g>
<g id="#48a036ff">
<path fill="#48a036" opacity="1.00" d=" M 496.36 285.55 C 505.25 285.81 514.04 289.53 520.43 295.72 C 517.33 295.46 514.21 294.80 511.09 295.12 C 508.14 296.37 508.26 299.93 507.71 302.56 C 504.32 300.91 500.77 299.58 497.09 298.80 C 498.46 296.83 500.90 294.75 499.83 292.07 C 498.70 289.88 496.77 288.07 496.36 285.55 Z" />
</g>
<g id="#64ae3aff">
<path fill="#64ae3a" opacity="1.00" d=" M 132.75 295.66 C 139.79 288.34 150.42 285.25 160.37 286.73 C 158.46 287.30 156.50 287.90 154.81 289.01 C 154.83 290.81 155.04 292.61 155.16 294.42 C 154.88 295.86 154.76 297.33 154.82 298.80 C 149.34 300.04 144.44 302.92 140.20 306.54 C 141.16 303.56 141.69 300.38 140.71 297.33 C 139.51 297.51 138.30 297.69 137.10 297.88 C 137.22 296.98 137.33 296.08 137.46 295.19 C 135.89 295.35 134.32 295.50 132.75 295.66 Z" />
</g>
<g id="#77bf34ff">
<path fill="#77bf34" opacity="1.00" d=" M 160.37 286.73 C 161.11 286.61 162.57 286.38 163.30 286.26 C 166.35 289.49 163.44 293.56 161.70 296.64 C 161.75 297.07 161.86 297.92 161.92 298.35 C 159.54 298.39 157.17 298.51 154.82 298.80 C 154.76 297.33 154.88 295.86 155.16 294.42 C 155.04 292.61 154.83 290.81 154.81 289.01 C 156.50 287.90 158.46 287.30 160.37 286.73 Z" />
</g>
<g id="#108247ff">
<path fill="#108247" opacity="1.00" d=" M 198.36 295.83 C 203.67 290.88 210.36 287.03 217.70 286.36 C 222.23 286.71 229.12 288.93 228.05 294.73 C 227.55 294.35 227.05 293.98 226.55 293.61 C 225.51 295.79 224.07 297.80 221.96 299.06 C 217.39 299.92 213.25 302.14 209.36 304.61 C 209.65 303.23 209.95 301.86 210.25 300.49 C 212.10 299.85 213.96 299.21 215.82 298.60 C 213.50 297.55 211.32 296.19 209.41 294.50 C 209.09 294.88 208.43 295.65 208.11 296.04 C 207.33 295.04 206.59 294.03 205.73 293.12 C 203.28 294.05 200.98 295.39 198.36 295.83 Z" />
</g>
<g id="#047640ff">
<path fill="#047640" opacity="1.00" d=" M 198.36 295.83 C 200.98 295.39 203.28 294.05 205.73 293.12 C 206.59 294.03 207.33 295.04 208.11 296.04 C 208.43 295.65 209.09 294.88 209.41 294.50 C 211.32 296.19 213.50 297.55 215.82 298.60 C 213.96 299.21 212.10 299.85 210.25 300.49 C 209.95 301.86 209.65 303.23 209.36 304.61 C 204.96 308.30 201.94 313.50 200.75 319.10 C 199.80 325.43 203.16 331.27 206.15 336.58 C 206.86 340.61 209.55 343.79 211.53 347.24 C 210.29 348.62 209.05 350.00 207.82 351.39 C 205.78 351.30 203.75 351.21 201.71 351.16 C 197.88 348.39 194.70 344.80 192.27 340.76 C 183.43 326.85 186.16 306.87 198.36 295.83 Z" />
</g>
<g id="#359534ff">
<path fill="#359534" opacity="1.00" d=" M 132.75 295.66 C 134.32 295.50 135.89 295.35 137.46 295.19 C 137.33 296.08 137.22 296.98 137.10 297.88 C 138.30 297.69 139.51 297.51 140.71 297.33 C 141.69 300.38 141.16 303.56 140.20 306.54 C 137.28 310.48 134.56 314.90 134.31 319.94 C 133.79 324.52 135.45 328.91 137.25 333.02 C 137.33 333.82 137.49 335.44 137.57 336.24 C 136.06 336.11 134.57 335.88 133.08 335.61 C 132.39 338.12 131.47 340.62 131.46 343.25 C 131.76 345.28 133.13 346.96 134.09 348.72 C 125.61 342.78 120.68 332.28 121.23 321.97 C 120.99 312.01 125.39 302.30 132.75 295.66 Z" />
</g>
<g id="#52a82aff">
<path fill="#52a82a" opacity="1.00" d=" M 507.71 302.56 C 508.26 299.93 508.14 296.37 511.09 295.12 C 514.21 294.80 517.33 295.46 520.43 295.72 C 523.76 299.19 526.43 303.28 528.45 307.65 C 528.13 309.46 527.82 311.27 527.53 313.09 C 525.32 310.22 522.45 307.91 518.87 307.06 C 519.38 313.08 521.63 318.90 520.97 325.03 C 521.10 330.05 517.65 333.95 515.45 338.14 C 517.65 339.50 520.20 339.80 522.75 339.63 C 523.00 340.33 523.50 341.73 523.76 342.43 C 519.56 347.82 514.07 352.20 507.88 355.09 C 507.77 354.65 507.55 353.76 507.44 353.31 C 508.25 352.08 509.07 350.85 509.89 349.62 C 508.75 348.98 507.61 348.34 506.48 347.71 C 506.81 346.91 507.15 346.11 507.50 345.32 C 506.12 344.42 504.74 343.52 503.37 342.62 C 509.50 339.69 514.68 334.52 517.05 328.10 C 518.55 322.54 518.29 316.25 515.35 311.19 C 513.77 307.58 511.00 304.67 507.71 302.56 Z" />
</g>
<g id="#2b3c54ff">
<path fill="#2b3c54" opacity="1.00" d=" M 1179.34 301.26 C 1179.74 299.26 1181.65 298.48 1183.51 298.53 C 1181.08 308.36 1175.53 317.28 1168.06 324.06 C 1164.75 327.21 1160.55 329.13 1156.66 331.43 C 1151.89 334.30 1146.30 335.10 1141.01 336.51 C 1141.33 338.10 1141.66 339.80 1143.01 340.89 C 1149.93 347.64 1156.74 354.51 1163.60 361.34 C 1168.17 365.52 1171.92 370.68 1177.18 374.05 L 1177.63 374.33 L 1177.93 374.82 C 1180.12 378.86 1184.07 382.17 1184.43 387.01 C 1185.17 392.52 1183.10 398.26 1179.08 402.08 C 1175.84 405.03 1171.17 405.42 1167.00 405.47 C 1161.39 405.24 1157.51 400.81 1153.86 397.11 C 1146.38 389.57 1138.76 382.16 1131.33 374.57 C 1128.78 372.00 1126.56 368.06 1128.53 364.50 C 1129.92 360.67 1135.23 360.60 1137.99 362.96 C 1143.49 367.40 1148.01 372.91 1153.09 377.82 C 1158.84 383.16 1163.81 389.39 1170.28 393.91 C 1170.92 392.51 1171.96 391.04 1171.43 389.42 C 1170.42 384.55 1166.23 381.44 1162.94 378.09 C 1150.40 365.93 1137.21 354.40 1125.08 341.82 C 1122.29 338.54 1118.75 335.64 1117.25 331.50 C 1116.15 328.40 1118.70 324.26 1122.11 324.37 C 1130.08 324.29 1138.23 324.33 1145.91 321.88 C 1156.03 318.96 1164.28 311.09 1168.83 301.73 C 1169.54 304.46 1169.36 307.43 1167.62 309.76 C 1163.97 314.80 1159.37 319.05 1154.90 323.33 C 1155.37 324.58 1155.86 325.83 1156.36 327.09 C 1159.76 324.41 1163.92 322.95 1167.49 320.59 C 1172.11 314.62 1177.02 308.57 1179.34 301.26 Z" />
</g>
<g id="#455266ff">
<path fill="#455266" opacity="1.00" d=" M 918.80 344.19 C 921.19 344.54 923.58 344.96 926.02 344.98 C 936.74 344.52 947.48 344.94 958.21 344.62 C 956.58 348.85 951.38 346.92 947.93 347.44 C 940.32 348.41 932.63 348.43 924.97 348.20 C 922.51 347.77 918.14 347.82 918.80 344.19 Z" />
</g>
<g id="#64b429ff">
<path fill="#64b429" opacity="1.00" d=" M 518.87 307.06 C 522.45 307.91 525.32 310.22 527.53 313.09 C 527.82 311.27 528.13 309.46 528.45 307.65 C 530.88 313.71 532.49 320.49 530.89 326.98 C 529.57 332.53 527.41 337.98 523.76 342.43 C 523.50 341.73 523.00 340.33 522.75 339.63 C 520.20 339.80 517.65 339.50 515.45 338.14 C 517.65 333.95 521.10 330.05 520.97 325.03 C 521.63 318.90 519.38 313.08 518.87 307.06 Z" />
</g>
<g id="#a1aeb5ff">
</g>
<g id="#23364eff">
<path fill="#23364e" opacity="1.00" d=" M 1054.47 326.78 C 1057.80 326.08 1060.58 324.13 1063.25 322.11 C 1066.25 323.30 1067.35 327.03 1069.42 329.35 C 1061.56 337.78 1058.16 349.66 1059.08 361.03 C 1058.80 374.04 1059.62 387.07 1058.90 400.07 C 1058.73 406.14 1048.24 407.08 1046.57 401.39 C 1045.51 397.35 1045.83 393.11 1045.73 388.98 C 1045.79 374.96 1045.12 360.88 1046.99 346.95 C 1048.01 339.79 1050.56 332.87 1054.47 326.78 Z" />
</g>
<g id="#3c5372ff">
<path fill="#3c5372" opacity="1.00" d=" M 1521.79 325.30 C 1523.48 324.43 1525.19 323.59 1526.92 322.75 C 1528.00 323.12 1529.10 323.49 1530.21 323.87 C 1528.13 326.29 1524.39 327.90 1521.79 325.30 Z" />
</g>
<g id="#5fb12dff">
<path fill="#5fb12d" opacity="1.00" d=" M 137.25 333.02 C 139.60 336.45 142.64 339.35 145.94 341.87 C 146.35 346.65 150.73 351.01 147.99 355.82 C 144.35 355.09 140.73 353.93 137.75 351.65 C 138.72 350.85 139.68 350.07 140.64 349.28 C 140.08 346.22 140.58 343.16 140.79 340.10 C 140.15 338.51 138.83 337.34 137.57 336.24 C 137.49 335.44 137.33 333.82 137.25 333.02 Z" />
</g>
<g id="#4aa329ff">
<path fill="#4aa329" opacity="1.00" d=" M 133.08 335.61 C 134.57 335.88 136.06 336.11 137.57 336.24 C 138.83 337.34 140.15 338.51 140.79 340.10 C 140.58 343.16 140.08 346.22 140.64 349.28 C 139.68 350.07 138.72 350.85 137.75 351.65 C 136.52 350.69 135.30 349.70 134.09 348.72 C 133.13 346.96 131.76 345.28 131.46 343.25 C 131.47 340.62 132.39 338.12 133.08 335.61 Z" />
</g>
<g id="#17894cff">
<path fill="#17894c" opacity="1.00" d=" M 206.15 336.58 C 208.80 338.94 211.81 340.83 214.76 342.81 C 217.60 346.88 223.05 345.23 226.97 347.45 C 228.63 347.01 230.28 346.54 231.93 346.06 C 231.83 350.53 231.62 355.00 231.09 359.44 C 229.80 358.77 228.61 357.60 227.04 357.73 C 218.28 357.86 208.71 357.02 201.71 351.16 C 203.75 351.21 205.78 351.30 207.82 351.39 C 209.05 350.00 210.29 348.62 211.53 347.24 C 209.55 343.79 206.86 340.61 206.15 336.58 Z" />
</g>
<g id="#7bc133ff">
<path fill="#7bc133" opacity="1.00" d=" M 145.94 341.87 C 147.20 342.39 148.50 342.84 149.82 343.23 C 153.30 344.27 156.86 345.00 160.32 346.11 C 162.94 347.53 165.82 348.33 168.48 349.66 C 167.38 352.27 166.29 355.12 163.52 356.41 C 158.34 356.63 153.10 356.89 147.99 355.82 C 150.73 351.01 146.35 346.65 145.94 341.87 Z" />
</g>
<g id="#9dc663ff">
<path fill="#9dc663" opacity="1.00" d=" M 149.82 343.23 C 151.56 343.22 153.30 343.14 155.05 343.12 L 155.57 343.18 C 162.92 344.48 170.38 343.41 177.78 343.90 C 177.93 346.58 178.08 349.25 178.18 351.93 L 177.10 351.95 C 177.02 349.77 176.93 347.58 176.53 345.43 C 171.12 345.58 165.72 345.75 160.32 346.11 C 156.86 345.00 153.30 344.27 149.82 343.23 Z" />
</g>
<g id="#1e833fff">
<path fill="#1e833f" opacity="1.00" d=" M 214.76 342.81 C 224.17 345.49 234.03 344.26 243.67 344.35 C 243.62 355.58 244.54 366.78 244.31 378.02 C 244.56 385.75 243.44 393.83 246.39 401.21 C 247.40 404.26 248.63 407.35 248.67 410.61 C 246.17 412.51 242.82 412.09 239.88 412.48 C 233.54 407.83 231.12 399.59 231.15 392.04 C 231.09 381.17 231.26 370.30 231.09 359.44 C 231.62 355.00 231.83 350.53 231.93 346.06 C 230.28 346.54 228.63 347.01 226.97 347.45 C 223.05 345.23 217.60 346.88 214.76 342.81 Z" />
</g>
<g id="#369441ff">
<path fill="#369441" opacity="1.00" d=" M 473.13 343.33 C 480.75 342.88 488.40 343.32 496.03 343.44 C 489.16 344.52 482.24 343.58 475.36 343.71 C 478.75 345.07 482.48 344.72 486.06 344.78 C 490.83 344.71 495.67 344.86 500.34 343.71 C 501.35 349.30 498.16 354.48 493.80 357.69 C 492.00 357.64 490.21 357.52 488.43 357.41 C 490.33 353.98 490.46 350.07 489.34 346.38 C 484.31 346.62 479.19 345.13 474.26 346.48 C 474.32 345.69 474.46 344.09 474.52 343.29 L 473.13 343.33 Z" />
</g>
<g id="#479c38ff">
<path fill="#479c38" opacity="1.00" d=" M 500.34 343.71 C 501.35 343.38 502.36 343.01 503.37 342.62 C 504.74 343.52 506.12 344.42 507.50 345.32 C 507.15 346.11 506.81 346.91 506.48 347.71 C 507.61 348.34 508.75 348.98 509.89 349.62 C 509.07 350.85 508.25 352.08 507.44 353.31 C 507.55 353.76 507.77 354.65 507.88 355.09 C 503.40 356.82 498.60 357.68 493.80 357.69 C 498.16 354.48 501.35 349.30 500.34 343.71 Z" />
</g>
<g id="#8ec830ff">
<path fill="#8ec830" opacity="1.00" d=" M 408.46 344.34 C 417.40 344.51 426.36 344.61 435.30 344.19 C 433.11 345.16 430.83 345.91 428.53 346.58 C 428.40 348.22 428.27 349.85 428.15 351.49 C 429.43 351.86 430.72 352.25 432.02 352.62 C 430.72 353.34 426.81 352.36 427.33 354.44 C 430.93 355.34 434.64 355.76 438.30 356.34 C 433.68 357.95 428.79 357.63 423.99 357.67 C 422.37 357.43 421.46 358.90 420.47 359.88 C 420.06 359.53 419.25 358.82 418.84 358.47 C 418.17 358.81 417.50 359.16 416.84 359.51 C 416.38 358.53 415.93 357.55 415.48 356.58 C 414.98 356.30 413.99 355.75 413.49 355.47 C 413.10 353.93 412.72 352.39 412.35 350.86 C 411.72 352.10 411.10 353.35 410.48 354.60 C 409.86 353.62 409.25 352.64 408.64 351.67 C 408.61 349.22 408.53 346.78 408.46 344.34 Z" />
</g>
<g id="#8bcb23ff">
<path fill="#8bcb23" opacity="1.00" d=" M 160.32 346.11 C 165.72 345.75 171.12 345.58 176.53 345.43 C 176.93 347.58 177.02 349.77 177.10 351.95 C 177.01 364.97 176.83 377.99 177.29 391.00 C 177.61 396.25 176.39 401.42 174.61 406.33 C 172.61 408.57 170.69 410.93 168.23 412.69 C 167.50 412.49 166.05 412.08 165.32 411.88 C 166.27 410.50 168.89 409.35 167.59 407.40 C 167.05 406.34 166.36 405.37 165.70 404.39 C 165.72 402.94 165.76 401.48 165.80 400.04 C 165.43 400.88 165.06 401.72 164.69 402.57 C 164.30 402.49 163.52 402.33 163.13 402.26 C 164.54 399.34 166.31 396.37 166.14 393.01 C 165.78 384.34 165.68 375.66 165.72 366.98 C 165.67 363.67 166.29 359.99 164.11 357.17 L 163.52 356.41 C 166.29 355.12 167.38 352.27 168.48 349.66 C 165.82 348.33 162.94 347.53 160.32 346.11 Z" />
</g>
<g id="#147d40ff">
<path fill="#147d40" opacity="1.00" d=" M 474.26 346.48 C 479.19 345.13 484.31 346.62 489.34 346.38 C 490.46 350.07 490.33 353.98 488.43 357.41 C 487.50 359.46 487.06 361.70 487.15 363.95 C 487.26 373.91 487.27 383.87 487.61 393.83 C 487.69 396.77 488.90 399.50 490.07 402.15 C 488.21 405.14 488.50 408.47 490.39 411.35 C 489.56 412.02 488.72 412.69 487.91 413.38 C 490.62 414.49 493.46 415.23 496.35 415.71 L 496.38 416.53 C 489.24 416.42 481.57 413.50 477.79 407.11 C 473.80 401.19 474.13 393.80 473.92 386.99 C 473.97 373.49 473.57 359.97 474.26 346.48 Z" />
</g>
<g id="#81c124ff">
<path fill="#81c124" opacity="1.00" d=" M 412.35 350.86 C 412.72 352.39 413.10 353.93 413.49 355.47 C 413.99 355.75 414.98 356.30 415.48 356.58 C 415.93 357.55 416.38 358.53 416.84 359.51 C 417.50 359.16 418.17 358.81 418.84 358.47 C 419.25 358.82 420.06 359.53 420.47 359.88 C 420.83 371.57 420.58 383.28 420.63 394.99 C 420.81 401.92 417.29 408.93 411.30 412.52 C 410.75 412.38 409.66 412.10 409.11 411.96 C 410.76 410.06 412.20 407.98 413.29 405.71 C 412.04 405.60 410.79 405.51 409.54 405.43 C 410.77 404.43 412.11 403.55 413.17 402.36 C 413.50 400.66 413.35 398.92 413.36 397.21 C 412.43 395.93 411.52 394.64 410.60 393.36 C 410.02 393.95 409.44 394.55 408.87 395.16 C 408.73 380.66 408.58 366.17 408.64 351.67 C 409.25 352.64 409.86 353.62 410.48 354.60 C 411.10 353.35 411.72 352.10 412.35 350.86 Z" />
</g>
<g id="#aecf62fb">
<path fill="#aecf62" opacity="1.00" d=" M 177.10 351.95 L 178.18 351.93 C 178.15 367.99 178.45 384.06 178.24 400.12 C 177.86 402.01 177.31 404.06 175.96 405.49 L 174.61 406.33 C 176.39 401.42 177.61 396.25 177.29 391.00 C 176.83 377.99 177.01 364.97 177.10 351.95 Z" />
</g>
<g id="#2b3d57ff">
<path fill="#2b3d57" opacity="1.00" d=" M 1332.90 356.94 C 1336.72 354.86 1341.79 352.47 1345.95 354.96 C 1352.30 356.14 1356.41 362.38 1357.76 368.31 C 1358.97 372.94 1356.97 377.60 1354.15 381.21 L 1353.70 381.34 C 1349.02 382.24 1346.20 386.52 1342.37 388.98 C 1333.61 393.38 1324.24 397.08 1314.38 397.81 C 1312.69 397.97 1311.21 398.88 1309.75 399.65 C 1308.89 399.59 1308.05 399.53 1307.23 399.47 C 1306.47 400.29 1305.74 401.11 1305.02 401.93 C 1304.19 401.85 1302.52 401.69 1301.69 401.61 C 1302.47 400.85 1303.24 400.08 1304.02 399.31 C 1299.65 399.26 1295.23 399.30 1290.98 398.18 C 1285.45 396.67 1279.61 398.17 1274.07 396.83 C 1267.50 394.10 1260.68 391.95 1254.35 388.66 C 1252.86 387.84 1252.07 386.28 1251.09 385.00 C 1254.57 385.52 1257.20 388.08 1260.36 389.44 C 1281.54 398.20 1307.02 397.73 1326.91 385.84 C 1332.59 382.73 1337.71 378.71 1342.46 374.33 C 1344.07 372.84 1345.14 370.51 1344.44 368.32 C 1343.06 366.81 1340.84 367.46 1339.54 368.66 C 1331.66 374.68 1323.50 380.63 1314.16 384.15 C 1300.03 389.10 1284.39 388.76 1270.08 384.82 C 1264.83 382.59 1258.96 380.99 1254.77 376.94 C 1258.60 377.80 1261.96 380.69 1266.06 380.16 C 1268.59 379.93 1271.13 380.38 1273.41 381.55 C 1275.86 382.99 1278.67 381.88 1281.27 381.54 C 1280.24 380.73 1279.21 379.93 1278.20 379.14 C 1278.99 378.58 1279.82 378.03 1280.65 377.48 C 1276.93 376.45 1272.57 376.05 1270.17 372.62 C 1274.25 372.84 1277.97 374.77 1282.01 375.31 C 1292.77 376.19 1304.32 376.20 1313.94 370.60 C 1321.04 367.20 1326.77 361.74 1332.90 356.94 Z" />
</g>
<g id="#8bb570f7">
</g>
<g id="#5ca53eff">
<path fill="#5ca53e" opacity="1.00" d=" M 307.17 365.18 C 312.34 361.38 319.00 361.06 325.04 359.57 C 331.39 360.01 337.78 361.69 343.46 364.62 C 338.59 363.80 333.66 365.56 328.83 364.27 C 328.13 365.61 328.07 367.50 329.55 368.38 C 332.80 370.94 336.91 372.53 339.10 376.27 C 334.35 373.96 329.18 371.40 323.75 372.85 C 317.99 373.50 313.36 377.08 308.89 380.44 C 309.55 378.09 310.52 375.85 311.73 373.74 C 311.23 372.41 310.72 371.09 310.22 369.78 C 308.46 370.81 306.71 371.83 304.96 372.87 C 304.03 372.34 303.11 371.82 302.19 371.30 C 300.99 371.81 299.79 372.31 298.61 372.86 C 300.93 369.75 303.93 367.27 307.17 365.18 Z" />
</g>
<g id="#59ab2cff">
<path fill="#59ab2c" opacity="1.00" d=" M 328.83 364.27 C 333.66 365.56 338.59 363.80 343.46 364.62 C 352.19 368.43 357.74 376.98 360.38 385.85 C 360.69 389.05 359.67 392.10 357.76 394.64 C 355.99 394.54 354.22 394.44 352.46 394.35 C 351.00 391.83 349.31 389.46 347.63 387.10 C 345.57 382.92 342.80 379.14 339.10 376.27 C 336.91 372.53 332.80 370.94 329.55 368.38 C 328.07 367.50 328.13 365.61 328.83 364.27 Z" />
</g>
<g id="#30445eff">
<path fill="#30445e" opacity="1.00" d=" M 1532.73 372.39 C 1533.83 370.60 1535.25 369.03 1537.01 367.86 C 1535.97 371.71 1532.78 374.30 1530.37 377.28 C 1519.17 390.59 1503.80 400.25 1487.06 404.87 C 1478.79 407.20 1470.05 408.36 1461.48 407.49 C 1457.44 405.57 1456.71 399.09 1461.02 396.94 C 1468.13 394.62 1475.96 396.04 1482.98 393.17 C 1490.49 391.50 1497.30 387.84 1504.01 384.21 C 1510.88 380.02 1516.69 374.41 1522.22 368.63 C 1522.19 369.96 1522.20 371.31 1522.50 372.63 C 1523.68 373.68 1525.09 374.43 1526.43 375.33 C 1524.07 376.26 1521.55 376.61 1519.03 376.45 C 1520.11 377.09 1521.17 377.74 1522.27 378.40 C 1522.38 378.78 1522.60 379.54 1522.71 379.91 C 1523.15 379.85 1524.02 379.73 1524.46 379.67 C 1524.71 379.09 1525.20 377.92 1525.45 377.34 C 1526.25 377.38 1527.06 377.42 1527.90 377.46 C 1528.27 376.36 1528.65 375.26 1529.06 374.17 C 1527.97 373.09 1526.91 372.02 1525.88 370.94 C 1528.24 370.84 1530.57 371.37 1532.73 372.39 Z" />
</g>
<g id="#449a38ff">
<path fill="#449a38" opacity="1.00" d=" M 304.96 372.87 C 306.71 371.83 308.46 370.81 310.22 369.78 C 310.72 371.09 311.23 372.41 311.73 373.74 C 310.52 375.85 309.55 378.09 308.89 380.44 C 306.85 382.90 305.27 385.75 304.35 388.81 C 301.97 398.11 303.55 407.87 302.54 417.35 C 297.53 417.23 292.54 416.60 287.52 416.49 C 289.86 416.12 292.22 415.76 294.58 415.50 C 294.26 413.81 293.95 412.13 293.64 410.45 C 293.07 410.23 291.91 409.78 291.34 409.55 C 292.34 407.41 293.55 405.31 294.02 402.96 C 293.94 400.99 293.34 399.10 292.88 397.21 C 292.38 397.70 291.89 398.19 291.40 398.68 C 291.18 396.71 290.95 394.74 290.81 392.77 C 291.58 385.62 293.94 378.44 298.61 372.86 C 299.79 372.31 300.99 371.81 302.19 371.30 C 303.11 371.82 304.03 372.34 304.96 372.87 Z" />
</g>
<g id="#384961ff">
<path fill="#384961" opacity="1.00" d=" M 907.55 379.80 C 910.43 374.73 917.19 376.55 921.99 376.33 C 936.29 377.89 950.68 376.91 965.03 377.26 C 967.22 377.02 968.98 378.33 970.12 380.09 C 957.42 380.64 944.69 380.09 931.98 380.33 C 923.83 380.14 915.64 380.98 907.55 379.80 Z" />
</g>
<g id="#36455eff">
<path fill="#36455e" opacity="1.00" d=" M 1342.37 388.98 C 1346.20 386.52 1349.02 382.24 1353.70 381.34 C 1350.42 386.16 1345.47 389.50 1340.80 392.87 C 1331.25 399.61 1320.23 404.13 1308.86 406.71 C 1300.84 408.55 1292.61 407.72 1284.48 407.78 L 1284.83 406.49 C 1284.16 408.17 1282.48 408.06 1281.53 406.78 C 1280.64 408.35 1278.45 407.31 1277.06 407.36 C 1273.26 406.96 1269.67 405.69 1266.22 404.16 C 1258.32 402.64 1250.78 399.35 1244.00 395.04 C 1242.12 393.84 1240.04 392.72 1238.92 390.71 C 1241.68 390.93 1244.36 391.76 1246.76 393.18 C 1252.53 396.49 1258.72 399.14 1265.20 400.71 C 1270.03 401.91 1275.07 401.09 1279.93 402.11 C 1283.65 402.85 1287.42 403.43 1291.08 404.48 C 1292.17 403.43 1293.26 402.39 1294.36 401.35 C 1295.56 402.04 1296.76 402.75 1297.99 403.45 C 1299.21 402.83 1300.44 402.21 1301.69 401.61 C 1302.52 401.69 1304.19 401.85 1305.02 401.93 C 1305.74 401.11 1306.47 400.29 1307.23 399.47 C 1308.05 399.53 1308.89 399.59 1309.75 399.65 C 1311.21 398.88 1312.69 397.97 1314.38 397.81 C 1324.24 397.08 1333.61 393.38 1342.37 388.98 Z" />
</g>
<g id="#6db337ff">
<path fill="#6db337" opacity="1.00" d=" M 360.38 385.85 C 362.75 391.50 360.58 398.05 363.58 403.46 C 365.42 405.43 367.65 406.97 369.92 408.42 C 368.67 409.25 367.45 410.11 366.21 410.95 C 366.76 411.69 367.32 412.43 367.88 413.19 C 367.65 413.48 367.17 414.06 366.93 414.35 C 362.89 414.55 358.86 414.90 354.86 415.45 C 369.90 416.59 385.01 415.90 400.08 416.37 C 383.16 416.87 366.20 416.54 349.27 416.61 C 349.18 406.76 349.94 396.78 347.63 387.10 C 349.31 389.46 351.00 391.83 352.46 394.35 C 354.22 394.44 355.99 394.54 357.76 394.64 C 359.67 392.10 360.69 389.05 360.38 385.85 Z" />
</g>
<g id="#3a9845ff">
<path fill="#3a9845" opacity="1.00" d=" M 290.27 402.38 C 290.40 399.17 290.44 395.96 290.81 392.77 C 290.95 394.74 291.18 396.71 291.40 398.68 C 291.89 398.19 292.38 397.70 292.88 397.21 C 293.34 399.10 293.94 400.99 294.02 402.96 C 293.55 405.31 292.34 407.41 291.34 409.55 C 291.91 409.78 293.07 410.23 293.64 410.45 C 293.95 412.13 294.26 413.81 294.58 415.50 C 292.22 415.76 289.86 416.12 287.52 416.49 C 276.36 416.73 265.20 416.55 254.04 416.60 C 249.01 416.73 244.10 415.16 239.88 412.48 C 242.82 412.09 246.17 412.51 248.67 410.61 C 248.63 407.35 247.40 404.26 246.39 401.21 C 247.60 401.66 248.79 402.21 250.07 402.44 C 258.69 403.15 267.34 403.36 275.98 403.25 C 280.48 403.10 285.13 404.01 289.50 402.59 L 290.27 402.38 Z" />
</g>
<g id="#7dc137ff">
<path fill="#7dc137" opacity="1.00" d=" M 408.87 395.16 C 409.44 394.55 410.02 393.95 410.60 393.36 C 411.52 394.64 412.43 395.93 413.36 397.21 C 413.35 398.92 413.50 400.66 413.17 402.36 C 412.11 403.55 410.77 404.43 409.54 405.43 C 410.79 405.51 412.04 405.60 413.29 405.71 C 412.20 407.98 410.76 410.06 409.11 411.96 C 409.66 412.10 410.75 412.38 411.30 412.52 C 407.94 414.69 404.10 416.16 400.08 416.37 C 385.01 415.90 369.90 416.59 354.86 415.45 C 358.86 414.90 362.89 414.55 366.93 414.35 C 367.17 414.06 367.65 413.48 367.88 413.19 C 367.32 412.43 366.76 411.69 366.21 410.95 C 367.45 410.11 368.67 409.25 369.92 408.42 C 367.65 406.97 365.42 405.43 363.58 403.46 C 372.02 403.18 380.48 403.42 388.93 403.38 C 394.33 403.32 399.95 403.84 405.13 401.96 C 408.02 401.12 408.44 397.67 408.87 395.16 Z" />
</g>
<g id="#77bf2fff">
<path fill="#77bf2f" opacity="1.00" d=" M 164.69 402.57 C 165.06 401.72 165.43 400.88 165.80 400.04 C 165.76 401.48 165.72 402.94 165.70 404.39 C 166.36 405.37 167.05 406.34 167.59 407.40 C 168.89 409.35 166.27 410.50 165.32 411.88 C 166.05 412.08 167.50 412.49 168.23 412.69 C 166.94 413.34 165.62 413.92 164.27 414.43 C 158.36 415.23 152.39 415.19 146.46 415.64 C 146.86 413.55 147.25 411.46 147.60 409.37 C 146.20 407.76 145.16 405.89 145.61 403.69 C 151.47 403.74 157.55 404.53 163.13 402.26 C 163.52 402.33 164.30 402.49 164.69 402.57 Z" />
</g>
<g id="#abbba8e3">
</g>
<g id="#3f5064ff">
<path fill="#3f5064" opacity="1.00" d=" M 718.70 401.50 C 723.43 400.59 728.26 400.48 733.06 400.62 C 737.77 400.80 742.77 399.92 747.13 402.20 C 746.81 402.64 746.17 403.50 745.85 403.94 C 739.54 404.16 733.23 403.53 726.92 403.77 C 724.06 403.58 720.24 404.69 718.70 401.50 Z" />
</g>
<g id="#7fb5abff">
</g>
<g id="#369b42ff">
<path fill="#369b42" opacity="1.00" d=" M 490.07 402.15 C 490.56 402.21 491.52 402.31 492.00 402.36 C 492.68 407.10 496.78 410.74 496.35 415.71 C 493.46 415.23 490.62 414.49 487.91 413.38 C 488.72 412.69 489.56 412.02 490.39 411.35 C 488.50 408.47 488.21 405.14 490.07 402.15 Z" />
</g>
<g id="#a5c18ee9">
</g>
<g id="#3c9945ff">
<path fill="#3c9945" opacity="1.00" d=" M 106.45 403.60 C 112.52 401.44 119.28 403.05 125.63 402.92 C 126.62 403.12 127.62 403.32 128.62 403.51 C 129.68 407.77 131.19 412.24 129.10 416.47 C 122.88 416.37 116.65 416.66 110.43 416.36 C 113.29 415.21 116.48 415.01 119.20 413.49 C 117.40 410.71 116.03 407.58 116.56 404.20 C 113.18 404.06 109.81 403.93 106.45 403.60 Z" />
</g>
<g id="#51a343ff">
<path fill="#51a343" opacity="1.00" d=" M 492.00 402.36 C 493.19 402.46 494.38 402.53 495.58 402.57 C 498.70 405.75 502.17 408.73 504.01 412.90 C 503.32 414.11 502.63 415.31 501.96 416.53 C 500.10 416.54 498.24 416.57 496.38 416.53 L 496.35 415.71 C 496.78 410.74 492.68 407.10 492.00 402.36 Z" />
</g>
<g id="#61ae45ff">
<path fill="#61ae45" opacity="1.00" d=" M 495.58 402.57 C 498.55 402.57 501.51 402.59 504.48 402.76 C 506.05 403.31 507.61 403.91 509.18 404.51 C 509.74 407.58 511.93 409.98 512.90 412.85 C 512.16 414.23 511.02 415.34 510.01 416.52 C 507.32 416.51 504.64 416.51 501.96 416.53 C 502.63 415.31 503.32 414.11 504.01 412.90 C 502.17 408.73 498.70 405.75 495.58 402.57 Z" />
</g>
<g id="#71b642ff">
<path fill="#71b642" opacity="1.00" d=" M 504.48 402.76 C 508.70 402.64 512.92 402.51 517.15 402.60 C 518.02 404.47 518.85 406.36 519.67 408.27 C 520.07 408.36 520.87 408.54 521.27 408.63 C 521.07 411.45 520.17 414.16 518.96 416.70 C 515.98 416.56 512.99 416.48 510.01 416.52 C 511.02 415.34 512.16 414.23 512.90 412.85 C 511.93 409.98 509.74 407.58 509.18 404.51 C 507.61 403.91 506.05 403.31 504.48 402.76 Z" />
</g>
<g id="#85c636ff">
<path fill="#85c636" opacity="1.00" d=" M 517.15 402.60 C 520.60 402.65 524.06 402.64 527.52 402.49 C 533.53 403.38 539.61 402.97 545.66 403.12 C 545.72 407.62 545.71 412.12 545.57 416.62 C 537.15 416.83 528.73 416.43 520.32 416.73 C 519.98 416.72 519.30 416.71 518.96 416.70 C 520.17 414.16 521.07 411.45 521.27 408.63 C 520.87 408.54 520.07 408.36 519.67 408.27 C 518.85 406.36 518.02 404.47 517.15 402.60 Z" />
</g>
<g id="#268f3eff">
<path fill="#268f3e" opacity="1.00" d=" M 106.45 403.60 C 109.81 403.93 113.18 404.06 116.56 404.20 C 116.03 407.58 117.40 410.71 119.20 413.49 C 116.48 415.01 113.29 415.21 110.43 416.36 C 109.11 416.43 107.79 416.50 106.47 416.57 C 106.29 412.25 106.23 407.92 106.45 403.60 Z" />
</g>
<g id="#54a53eff">
<path fill="#54a53e" opacity="1.00" d=" M 128.62 403.51 C 131.80 403.68 134.97 403.57 138.15 403.60 C 137.58 404.46 137.01 405.34 136.45 406.21 C 137.29 408.41 139.14 410.68 138.26 413.14 C 137.64 415.53 134.78 415.78 132.85 416.51 C 131.60 416.50 130.35 416.49 129.10 416.47 C 131.19 412.24 129.68 407.77 128.62 403.51 Z" />
</g>
<g id="#66ae3aff">
<path fill="#66ae3a" opacity="1.00" d=" M 138.15 403.60 C 140.64 403.61 143.12 403.64 145.61 403.69 C 145.16 405.89 146.20 407.76 147.60 409.37 C 147.25 411.46 146.86 413.55 146.46 415.64 C 152.39 415.19 158.36 415.23 164.27 414.43 C 154.85 417.77 144.62 416.19 134.83 416.54 C 134.34 416.53 133.34 416.52 132.85 416.51 C 134.78 415.78 137.64 415.53 138.26 413.14 C 139.14 410.68 137.29 408.41 136.45 406.21 C 137.01 405.34 137.58 404.46 138.15 403.60 Z" />
</g>
<g id="#57a53cff">
<path fill="#57a53c" opacity="1.00" d=" M 296.88 439.58 C 303.68 430.69 314.90 425.51 326.02 425.33 C 334.65 425.48 343.04 429.15 349.56 434.71 C 347.12 435.19 344.71 434.85 342.61 433.52 C 340.00 431.85 336.86 432.11 333.91 432.08 C 334.19 433.94 334.53 435.80 335.01 437.63 C 334.87 438.52 334.73 439.42 334.62 440.33 C 330.56 439.16 326.23 438.10 322.06 439.36 C 312.31 441.41 305.13 450.01 303.03 459.49 C 300.71 451.45 309.75 446.21 309.81 438.42 C 307.76 438.52 305.71 438.61 303.66 438.70 C 302.73 439.31 301.81 439.94 300.88 440.57 C 299.54 440.24 298.21 439.90 296.88 439.58 Z" />
</g>
<g id="#56ad27ff">
<path fill="#56ad27" opacity="1.00" d=" M 333.91 432.08 C 336.86 432.11 340.00 431.85 342.61 433.52 C 344.71 434.85 347.12 435.19 349.56 434.71 C 354.21 438.96 357.29 444.63 359.42 450.49 C 358.43 453.40 359.04 456.38 359.91 459.22 C 358.53 458.38 357.15 457.55 355.77 456.75 C 353.00 456.97 350.30 456.37 347.80 455.20 C 345.56 448.80 341.01 442.97 334.62 440.33 C 334.73 439.42 334.87 438.52 335.01 437.63 C 334.53 435.80 334.19 433.94 333.91 432.08 Z" />
</g>
<g id="#3a9637ff">
<path fill="#3a9637" opacity="1.00" d=" M 300.88 440.57 C 301.81 439.94 302.73 439.31 303.66 438.70 C 305.71 438.61 307.76 438.52 309.81 438.42 C 309.75 446.21 300.71 451.45 303.03 459.49 C 302.35 465.42 302.83 471.40 302.53 477.35 L 302.38 478.72 C 301.61 476.78 300.84 474.86 300.10 472.92 C 296.42 471.59 293.59 468.87 290.56 466.53 C 289.29 457.16 291.43 447.34 296.88 439.58 C 298.21 439.90 299.54 440.24 300.88 440.57 Z" />
</g>
<g id="#70b52dff">
<path fill="#70b52d" opacity="1.00" d=" M 359.42 450.49 C 361.74 456.56 361.66 463.20 363.68 469.35 C 364.29 469.36 365.49 469.37 366.09 469.38 C 366.27 470.05 366.61 471.40 366.79 472.07 C 365.76 473.05 364.73 474.03 363.72 475.03 C 363.49 476.60 363.69 478.39 362.66 479.71 C 360.75 480.91 358.56 481.53 356.48 482.34 C 354.15 482.42 351.82 482.49 349.50 482.53 C 349.25 473.41 350.34 464.11 347.80 455.20 C 350.30 456.37 353.00 456.97 355.77 456.75 C 357.15 457.55 358.53 458.38 359.91 459.22 C 359.04 456.38 358.43 453.40 359.42 450.49 Z" />
</g>
<g id="#248d41ff">
<path fill="#248d41" opacity="1.00" d=" M 290.56 466.53 C 293.59 468.87 296.42 471.59 300.10 472.92 C 300.84 474.86 301.61 476.78 302.38 478.72 C 302.28 480.09 302.18 481.46 302.09 482.85 C 290.38 482.53 278.67 482.66 266.96 482.67 C 261.33 482.70 255.66 482.56 250.10 483.52 C 248.39 483.73 247.20 485.09 245.93 486.11 C 246.33 483.98 246.74 481.85 247.52 479.83 C 246.76 477.70 246.32 474.75 243.71 474.14 C 242.00 473.93 240.28 474.25 238.59 474.42 C 243.83 469.56 251.20 468.85 258.00 468.68 C 267.66 468.56 277.34 468.26 286.97 469.15 C 288.75 469.45 290.05 468.08 290.56 466.53 Z" />
</g>
<g id="#85c52aff">
<path fill="#85c52a" opacity="1.00" d=" M 366.09 469.38 C 376.40 469.31 386.71 469.25 397.02 469.40 C 403.68 469.56 410.55 471.68 415.32 476.52 C 414.31 476.52 413.31 476.53 412.32 476.54 C 412.08 477.58 411.85 478.62 411.62 479.67 C 408.18 480.47 404.79 481.52 401.43 482.60 C 386.45 482.38 371.46 482.63 356.48 482.34 C 358.56 481.53 360.75 480.91 362.66 479.71 C 363.69 478.39 363.49 476.60 363.72 475.03 C 364.73 474.03 365.76 473.05 366.79 472.07 C 366.61 471.40 366.27 470.05 366.09 469.38 Z" />
</g>
<g id="#06753eff">
<path fill="#06753e" opacity="1.00" d=" M 238.59 474.42 C 240.28 474.25 242.00 473.93 243.71 474.14 C 246.32 474.75 246.76 477.70 247.52 479.83 C 246.74 481.85 246.33 483.98 245.93 486.11 C 245.39 488.37 244.66 490.61 244.49 492.95 C 243.93 508.85 245.07 524.82 243.56 540.67 C 239.50 541.38 235.36 541.43 231.30 540.74 C 230.75 536.51 230.75 532.25 230.93 528.00 C 231.46 515.33 230.96 502.64 231.23 489.97 C 231.21 485.77 232.85 481.84 234.61 478.12 C 235.92 476.86 237.23 475.62 238.59 474.42 Z" />
</g>
<g id="#98cc1eff">
<path fill="#98cc1e" opacity="1.00" d=" M 412.32 476.54 C 413.31 476.53 414.31 476.52 415.32 476.52 C 418.95 480.77 420.30 486.48 420.36 491.97 C 420.63 505.32 420.23 518.69 421.15 532.02 C 421.19 534.84 421.60 537.82 420.50 540.51 C 416.64 541.95 412.39 541.42 408.47 540.48 C 408.76 529.67 408.56 518.86 408.45 508.05 C 408.19 500.01 409.09 491.72 406.22 484.02 C 404.62 483.54 403.03 483.03 401.43 482.60 C 404.79 481.52 408.18 480.47 411.62 479.67 C 411.85 478.62 412.08 477.58 412.32 476.54 Z" />
</g>
</svg>
